Coordinates											
version=1											
nRows=49											
nColumns=12											
inDegrees=yes											
											
"Units are S.I. units (second, meters, Newtons, ...)"											
"If the header above contains a line with 'inDegrees', this indicates whether rotational values are in degrees (yes) or radians (no)."											
											
endheader											
time	clav_prot	clav_elev	scapula_abduction	scapula_elevation	scapula_upward_rot	scapula_winging	plane_elv	shoulder_elv	axial_rot	elbow_flexion	pro_sup
1.98	-30.78987615	8.83475761	-0.23930554	-1.85043312	54.11491646	-7.19550655	68.13777362	71.75278187	-14.42764449	0	34.32
1.99	-30.99645436	9.04332677	-0.31088145	-1.7430823	54.53835725	-7.32238871	67.96599722	71.82134158	-13.34788213	0	34.32
2	-31.09381375	9.11145605	-0.34112838	-1.71262132	54.73011764	-7.37569979	66.74468935	73.16931193	-28.42890787	0	34.32
2.01	-31.31661002	9.3553642	-0.40940256	-1.58325571	55.20426716	-7.51638483	66.91881574	72.88423138	-21.02927018	0	34.32
2.02	-31.48293701	9.56055257	-0.29317922	-1.4786296	55.7626269	-7.63797562	66.57099292	72.70449829	-16.9608482	0	34.32
2.03	-31.51047143	9.51325322	-0.21903577	-1.51833874	55.88732549	-7.64513878	65.44791775	73.95376437	-27.96791567	0	34.32
2.04	-31.69862619	9.60916846	-0.05938228	-1.4903221	56.49795867	-7.75398718	65.31426779	73.50885988	-20.90696185	0	34.32
2.05	-31.87886069	9.6211943	-0.18643985	-1.50382015	56.72390336	-7.82232877	65.23623423	74.15885495	-20.94356893	0	34.32
2.06	-32.30218736	9.83538871	-0.51745441	-1.4081938	57.28841322	-8.02098687	65.58982234	74.19950933	-18.35235108	0	34.32
2.07	-32.53005531	10.02194407	-0.71562591	-1.30744344	57.59654835	-8.14185351	65.66066029	74.41701494	-16.20028259	0	34.32
2.08	-32.67037188	10.20538746	-0.80350779	-1.20021341	57.85320268	-8.23150076	65.54606193	74.62724269	-14.11482304	0	34.32
2.09	-32.8217416	10.30350375	-0.83052056	-1.15356012	58.16976442	-8.31216891	65.31271816	74.96005452	-13.02249092	0	34.32
2.1	-32.9087924	10.34992202	-0.8134947	-1.13424297	58.38582312	-8.35803694	64.10860831	76.40382358	-26.68252743	0	34.32
2.11	-33.12700649	10.36728787	-0.89901027	-1.1479167	58.7383926	-8.4484534	64.22947013	76.28738858	-20.93903885	0	34.32
2.12	-33.36803145	10.58410924	-0.95661208	-1.02970507	59.24850781	-8.58672266	64.10190307	75.99090902	-17.63991074	0	34.32
2.13	-33.54383566	10.7386601	-1.20096469	-0.94074235	59.38340108	-8.67949365	64.37068322	76.31360729	-15.07125251	0	34.32
2.14	-33.62505059	10.77690733	-1.21136545	-0.92419991	59.55200022	-8.71978769	64.23182473	76.77300188	-15.13555717	0	34.32
2.15	-33.74933945	10.66293865	-0.91729245	-1.02077946	60.10304861	-8.75945429	63.68795865	76.5764094	-13.27388219	0	34.32
2.16	-33.8497448	10.58097561	-0.83412907	-1.08830835	60.37251232	-8.78804152	63.32303363	76.80827348	-12.30673078	0	34.32
2.17	-33.97161634	10.64343224	-0.92842258	-1.05747051	60.53570157	-8.84642383	63.1780684	77.34622382	-12.39287575	0	34.32
2.18	-34.16984541	10.73906803	-1.00984489	-1.01188763	60.88223846	-8.94287984	62.31056807	78.63380645	-26.48875449	0	34.32
2.19	-34.38874326	10.78655596	-1.01898654	-1.00085289	61.33635585	-9.04013075	62.50868613	78.46954405	-22.10938034	0	34.32
2.2	-34.52929944	10.77597376	-1.07698089	-1.02066674	61.55094881	-9.09451382	62.60472269	78.58957597	-19.7477989	0	34.32
2.21	-34.6271469	10.65997692	-0.91585089	-1.10905321	61.89409103	-9.11417924	62.44357611	78.58645326	-17.85347438	0	34.32
2.22	-34.81568968	10.66814829	-0.92054748	-1.11949047	62.27624709	-9.19129536	62.42123399	78.82174434	-15.77304875	0	34.32
2.23	-34.94733823	10.7502117	-0.97888987	-1.07441022	62.50849463	-9.25795014	62.34516347	79.43438834	-15.82995352	0	34.32
2.24	-35.2919164	10.98598896	-1.13078647	-0.94074581	63.12454037	-9.43722108	62.26824728	79.45447327	-14.79387401	0	34.32
2.25	-35.45818701	11.1386475	-1.11767138	-0.8484598	63.53817149	-9.5292623	61.89711404	79.61900298	-13.89965126	0	34.32
2.26	-35.60369434	11.20611825	-1.107113	-0.81203124	63.87346217	-9.59787338	61.49120377	79.7777869	-13.29039113	0	34.32
2.27	-35.75221681	11.13664846	-1.07476675	-0.86829507	64.18759304	-9.64379411	61.11372554	79.79328403	-11.91152106	0	34.32
2.28	-35.90435772	11.15346923	-1.19892543	-0.86745691	64.35873301	-9.70868229	60.93921516	79.9630427	-11.13161045	0	34.32
2.29	-36.08706998	11.16518118	-1.26002309	-0.8706725	64.6644341	-9.78349993	60.68506043	80.18911102	-11.32326062	0	34.32
2.3	-36.25566012	11.24997042	-1.27804506	-0.82192141	65.02010824	-9.86409581	60.33932901	80.56140551	-11.27232682	0	34.32
2.31	-36.40979735	11.33047118	-1.29389586	-0.77468741	65.34721967	-9.93791649	59.99822751	80.8573615	-11.22423159	0	34.32
2.32	-36.54113826	11.34572321	-1.31363665	-0.77062108	65.5981519	-9.99197842	59.75388207	81.06882036	-11.46651823	0	34.32
2.33	-36.63496374	11.31511051	-1.19366721	-0.79264827	65.91961294	-10.01872042	59.4041136	81.43855829	-10.91644473	0	34.32
2.34	-36.89730516	11.37042823	-1.34149514	-0.76844903	66.30287021	-10.13433159	59.46184429	81.82722396	-10.87778689	0	34.32
2.35	-37.18959001	11.54873166	-1.59934665	-0.66332223	66.66431229	-10.287352	59.38309959	82.41754996	-11.42288187	0	34.32
2.36	-37.39248276	11.6759492	-1.71660458	-0.58570081	66.98954693	-10.39165568	58.9739632	82.78177526	-11.43254031	0	34.32
2.37	-37.5299005	11.79459424	-1.79119964	-0.51038402	67.22807051	-10.46717056	58.46725847	82.88364745	-10.8327379	0	34.32
2.38	-37.43559995	11.70867575	-1.62051155	-0.56117356	67.20401611	-10.40835939	57.08306672	84.29573273	-24.67728426	0	34.32
2.39	-37.52167774	11.70637722	-1.46425543	-0.55916965	67.56412067	-10.43226886	56.75369501	84.1691511	-20.73517433	0	34.32
2.4	-37.68709717	11.691136	-1.31319373	-0.56668812	68.07631544	-10.48313389	56.44517683	84.06811491	-17.94768541	0	34.32
2.41	-37.90490966	11.70727396	-1.44152647	-0.56355456	68.37688244	-10.57557985	56.46662752	84.31236249	-16.4194128	0	34.32
2.42	-38.06916715	11.73224655	-1.64161136	-0.55659182	68.48592919	-10.6539391	56.38797496	84.81977714	-16.4592952	0	34.32
2.43	-38.34149	11.85304959	-1.81855846	-0.4832509	68.88039004	-10.78751403	56.18192737	84.69253202	-14.89096166	0	34.32
2.44	-38.53581264	11.97321685	-2.0666985	-0.41284999	69.02981219	-10.89739577	56.11652724	84.8614568	-13.73639922	0	34.32
2.45	-38.71742808	12.09023099	-2.32303635	-0.34498924	69.1419285	-11.00347663	56.0030108	85.11344494	-13.05995836	0	34.32
2.46	-38.83985066	12.06002788	-2.42368876	-0.37076534	69.2613963	-11.05349571	55.77533536	85.54294618	-13.10790258	0	34.32
